# xmcd
#
# Track frame offsets: 
#        300
#        21912
#        59205
#        82163
#        100584
#        121051
#        138055
#        171592
#        205316
#        236829
#
# Disc length: 3359 seconds
#
# Revision: 0
# Processed by: cddbd v1.5.2PL0 Copyright (c) Steve Scherf et al.
# Submitted via: ExactAudioCopy v1.0b1
#
DISCID=900d1b0a
DTITLE=Jimmy Dawkins - All For Business
DYEAR=1990
DGENRE=Chicago Blues
TTITLE0=All For Business
TTITLE1=Born In Poverty
TTITLE2=Cotton Country
TTITLE3=Down So Long
TTITLE4=Having Such A Hard Time
TTITLE5=Hippies Playground
TTITLE6=Jammin' With Otis
TTITLE7=Moon Man
TTITLE8=Sweet Home Chicago
TTITLE9=Welfare Blues
EXTD=
EXTT0=
EXTT1=
EXTT2=
EXTT3=
EXTT4=
EXTT5=
EXTT6=
EXTT7=
EXTT8=
EXTT9=
PLAYORDER=
